<?xml version="1.0" standalone="no"?>
<!DOCTYPE svg PUBLIC "-//W3C//DTD SVG 20010904//EN"
 "http://www.w3.org/TR/2001/REC-SVG-20010904/DTD/svg10.dtd">
<svg version="1.0" xmlns="http://www.w3.org/2000/svg"
 width="300.000000pt" height="310.000000pt" viewBox="0 0 300.000000 310.000000"
 preserveAspectRatio="xMidYMid meet">
<metadata>
Created by potrace 1.10, written by Peter Selinger 2001-2011
</metadata>
<g transform="translate(0.000000,310.000000) scale(0.100000,-0.100000)"
fill="#000000" stroke="none">
<path d="M954 2717 l-251 -100 -60 -326 -60 -326 45 -67 c25 -37 48 -65 53
-63 4 3 11 0 15 -6 5 -8 3 -9 -6 -4 -8 5 -11 3 -8 -6 3 -8 10 -14 16 -14 5 0
14 -4 19 -9 4 -5 4 -7 -2 -4 -7 4 -9 -110 -7 -336 l3 -342 -26 -24 c-25 -23
-25 -25 -25 -185 0 -112 4 -165 12 -173 15 -15 31 -16 22 0 -5 7 -3 8 5 4 7
-5 10 -11 7 -14 -7 -7 13 -32 26 -32 5 0 6 5 2 12 -4 7 -3 8 5 4 6 -4 9 -11 6
-16 -3 -4 12 -22 34 -39 41 -33 57 -39 45 -18 -4 6 -5 10 -1 7 3 -3 6 -9 7
-15 2 -14 31 -45 42 -45 5 0 6 5 2 12 -4 7 -3 8 5 4 6 -4 9 -11 6 -16 -3 -4
33 -38 79 -74 85 -67 110 -81 85 -48 -13 15 -12 16 3 3 10 -7 16 -17 13 -21
-3 -5 12 -22 34 -39 43 -34 61 -40 40 -13 -13 15 -12 16 3 3 10 -7 16 -17 13
-21 -3 -5 67 -65 155 -134 l160 -126 90 71 c49 39 88 75 85 79 -2 4 5 16 18
26 l22 19 -19 -22 c-11 -13 -15 -23 -9 -23 13 0 45 35 38 42 -3 3 3 11 12 19
16 13 17 12 4 -3 -21 -27 -3 -21 40 13 22 17 37 34 34 39 -3 4 3 14 13 21 15
13 16 12 3 -3 -21 -27 -3 -21 40 13 22 17 37 34 34 39 -3 4 3 14 13 21 15 13
16 12 3 -3 -21 -27 -3 -21 40 13 22 17 37 34 34 39 -3 4 3 14 13 21 15 13 16
12 3 -3 -21 -27 -3 -21 40 13 22 17 37 34 34 39 -3 4 3 14 13 21 15 13 16 12
3 -4 -7 -9 -9 -17 -4 -17 12 0 42 31 41 43 0 5 4 12 8 15 4 4 4 1 0 -5 -12
-21 4 -15 45 18 22 17 37 35 34 39 -3 5 0 12 6 16 8 4 9 3 5 -4 -12 -19 3 -14
40 14 l34 26 0 158 c0 128 -3 160 -15 170 -8 7 -15 9 -15 5 0 -5 -9 0 -20 10
-19 18 -20 29 -18 359 l3 341 2 -341 c3 -288 6 -344 18 -354 10 -8 15 -9 15
-2 0 6 -4 14 -10 17 -6 4 -10 128 -10 339 0 277 2 335 15 352 17 23 19 38 3
28 -7 -4 -8 -3 -4 5 4 6 11 9 15 6 5 -2 28 26 53 63 l45 67 -60 326 -60 325
-261 104 -260 103 -68 -37 c-56 -31 -72 -35 -84 -25 -34 28 -154 28 -189 -1
-12 -10 -26 -6 -79 24 -35 20 -70 36 -78 35 -7 -1 -126 -46 -264 -102z m246
74 c-27 -16 -472 -192 -476 -188 -2 2 103 47 234 99 218 88 281 111 242 89z
m787 -92 c128 -51 231 -94 229 -96 -4 -4 -453 174 -476 189 -13 8 -13 9 0 5 8
-3 120 -47 247 -98z m-617 26 c0 -3 -27 8 -60 25 -33 17 -60 33 -60 35 0 3 27
-8 60 -25 33 -17 60 -33 60 -35z m300 50 c0 -2 -22 -16 -50 -30 -27 -14 -50
-23 -50 -20 0 2 21 16 48 29 53 28 52 28 52 21z m-390 -35 c33 -17 60 -35 60
-41 0 -6 -6 -9 -12 -7 -108 40 -114 41 -202 19 -47 -12 -88 -21 -93 -21 -8 1
166 77 180 79 4 1 34 -13 67 -29z m206 21 c5 -5 23 -11 39 -13 l30 -3 3 -94
c2 -64 -1 -98 -10 -110 -11 -14 -11 -14 3 -3 21 16 637 13 629 -3 -3 -6 -128
-11 -337 -12 -218 -1 -339 -6 -353 -13 -14 -8 -26 -8 -41 0 -14 8 -127 11
-355 10 -294 -1 -334 1 -334 15 0 13 38 15 308 15 233 0 311 -3 321 -12 11
-11 12 -10 6 1 -6 11 -4 13 11 6 71 -29 71 -29 105 -9 l34 20 3 87 c3 92 4 89
-48 101 -23 5 -25 3 -24 -29 1 -21 -2 -32 -8 -29 -5 4 -8 22 -6 40 3 23 1 31
-6 24 -6 -6 -23 -10 -38 -10 -25 0 -28 -3 -27 -32 l1 -33 8 30 c5 21 8 24 10
10 1 -20 1 -20 10 0 8 18 9 18 9 2 1 -10 -8 -27 -19 -39 -21 -23 -27 -63 -10
-73 6 -3 10 -16 9 -28 0 -21 -1 -21 -9 -2 -8 19 -9 18 -11 -5 -1 -14 -5 11 -9
55 -7 95 1 125 32 125 13 0 30 5 38 10 19 12 24 12 36 1z m289 -12 c11 -5 47
-20 80 -34 74 -30 59 -32 -42 -4 l-78 21 -68 -22 c-38 -12 -71 -19 -74 -16 -8
8 -7 9 62 44 58 30 77 32 120 11z m-328 -41 c-3 -8 -6 -5 -6 6 -1 11 2 17 5
13 3 -3 4 -12 1 -19z m50 0 c-3 -8 -6 -5 -6 6 -1 11 2 17 5 13 3 -3 4 -12 1
-19z m34 7 c6 15 7 10 7 -20 0 -22 -2 -32 -5 -22 -2 9 -9 17 -14 17 -5 0 -8
10 -8 23 1 20 2 20 7 2 5 -20 5 -20 13 0z m-241 -30 c71 -24 75 -27 75 -55 0
-16 -4 -30 -8 -30 -5 0 -42 10 -83 22 l-74 21 -199 -22 c-110 -12 -210 -24
-223 -27 -13 -2 -17 -1 -8 3 15 7 415 110 435 112 5 1 44 -10 85 -24z m661
-30 c205 -51 285 -75 199 -61 -58 10 -270 35 -350 42 -60 4 -88 2 -140 -15
-84 -27 -87 -26 -87 9 0 28 5 31 71 54 39 13 74 25 78 25 4 1 107 -24 229 -54z
m-467 18 c7 21 8 20 23 -11 17 -34 7 -62 -17 -47 -8 5 -6 11 7 21 10 7 13 14
7 14 -6 0 -14 -3 -18 -7 -3 -4 -14 -8 -24 -9 -9 -2 -18 -8 -20 -13 -2 -6 -8
-11 -13 -11 -13 0 -11 37 4 60 l12 21 16 -20 c17 -20 17 -20 23 2z m1 -71 c16
-19 16 -22 2 -16 -14 5 -16 1 -11 -25 4 -20 3 -31 -5 -31 -6 0 -11 14 -11 31
0 17 -4 28 -10 24 -14 -9 -13 18 2 33 6 6 12 11 12 9 1 -1 10 -12 21 -25z
m-241 7 c22 -6 50 -15 61 -19 11 -5 27 -11 35 -13 8 -3 -123 -7 -293 -9 -169
-1 -307 0 -307 5 0 4 23 7 52 7 29 0 88 5 132 10 79 10 222 26 260 29 10 0 37
-4 60 -10z m284 -50 c-9 -6 -14 -3 -17 8 -2 10 2 19 8 21 6 2 12 11 12 20 1
10 4 4 6 -12 3 -17 -1 -32 -9 -37z m402 40 c58 -6 142 -13 188 -16 169 -11 72
-18 -225 -15 -266 3 -303 5 -273 16 105 39 82 38 310 15z m-1213 -41 c-3 -7
-5 -2 -5 12 0 14 2 19 5 13 2 -7 2 -19 0 -25z m1510 0 c-3 -7 -5 -2 -5 12 0
14 2 19 5 13 2 -7 2 -19 0 -25z m-800 0 c-3 -8 -6 -5 -6 6 -1 11 2 17 5 13 3
-3 4 -12 1 -19z m20 -10 c-3 -8 -6 -5 -6 6 -1 11 2 17 5 13 3 -3 4 -12 1 -19z
m50 0 c-3 -8 -6 -5 -6 6 -1 11 2 17 5 13 3 -3 4 -12 1 -19z m-790 -40 c-3 -7
-5 -2 -5 12 0 14 2 19 5 13 2 -7 2 -19 0 -25z m69 -2 c40 -8 41 -12 12 -38
-20 -17 -23 -32 -26 -102 -3 -62 0 -91 12 -114 22 -43 69 -66 117 -58 l37 6 4
-43 c3 -23 8 -50 12 -59 8 -17 -2 -18 -130 -18 -109 0 -141 -3 -154 -15 -16
-14 -16 -11 -4 52 7 38 14 82 17 98 17 109 62 327 65 313 2 -9 17 -19 38 -22z
m1472 -46 c0 -22 -1 -22 -8 5 -4 17 -8 41 -8 55 0 22 1 22 8 -5 4 -16 8 -41 8
-55z m1 -156 c23 -121 41 -229 41 -240 -1 -18 -1 -18 -11 -1 -9 15 -30 17
-199 17 -118 0 -190 4 -190 10 0 6 18 7 45 3 61 -8 75 6 75 73 0 41 -4 54 -17
58 -15 5 -18 16 -15 78 2 40 5 80 9 88 9 25 31 -49 32 -107 1 -65 23 -84 97
-81 83 3 110 47 54 90 l-31 24 26 69 c26 67 26 71 9 99 -9 16 -12 26 -6 22 6
-3 17 0 24 8 7 8 14 13 15 12 0 0 20 -100 42 -222z m-818 183 c37 -15 27 -47
-15 -47 -24 0 -35 7 -48 29 -9 16 -14 32 -12 34 6 6 40 -1 75 -16z m656 1 c-3
-8 -6 -5 -6 6 -1 11 2 17 5 13 3 -3 4 -12 1 -19z m-1108 -5 c-7 -10 -14 -19
-15 -21 0 -1 -9 7 -19 18 -18 20 -17 20 15 20 29 0 31 -2 19 -17z m161 7 c0
-5 -7 -10 -15 -10 -8 0 -15 5 -15 10 0 6 7 10 15 10 8 0 15 -4 15 -10z m130 1
c0 -5 -7 -14 -15 -21 -8 -7 -15 -10 -15 -7 0 3 -3 12 -6 21 -4 12 0 16 15 16
12 0 21 -4 21 -9z m-573 -38 c-3 -10 -5 -4 -5 12 0 17 2 24 5 18 2 -7 2 -21 0
-30z m222 12 c23 -11 30 -22 33 -55 4 -40 3 -40 -32 -40 -33 0 -35 2 -35 32 0
17 -6 33 -13 36 -10 3 -12 -15 -10 -82 2 -51 7 -85 13 -84 6 2 9 15 9 31 -2
24 1 27 32 27 32 0 34 -2 34 -33 0 -46 -28 -70 -82 -69 -63 1 -78 25 -78 119
0 81 10 110 43 123 32 13 55 12 86 -5z m197 -115 l20 -120 -33 0 c-29 0 -33 3
-33 25 0 16 -6 25 -15 25 -18 0 -19 5 -4 28 8 13 9 35 4 68 l-9 49 -12 -95
c-7 -52 -13 -96 -13 -97 -1 -2 -15 -3 -32 -3 -27 0 -30 3 -26 23 3 12 11 66
18 120 l12 97 51 0 52 0 20 -120z m104 25 c0 -88 1 -95 20 -95 15 0 20 -7 20
-25 0 -24 -3 -25 -55 -25 l-55 0 0 120 0 120 35 0 35 0 0 -95z m130 0 c0 -88
1 -95 20 -95 15 0 20 -7 20 -25 0 -24 -3 -25 -55 -25 l-55 0 0 120 0 120 35 0
35 0 0 -95z m274 79 c12 -12 16 -37 16 -104 0 -111 -7 -120 -96 -120 l-64 0 0
120 0 120 64 0 c45 0 69 -5 80 -16z m106 -90 c0 -67 4 -103 10 -99 6 3 10 50
10 106 l0 99 35 0 35 0 0 -102 c0 -122 -9 -138 -78 -138 -73 0 -82 15 -82 137
l0 103 35 0 35 0 0 -106z m260 80 c0 -20 -4 -25 -21 -22 -21 3 -22 0 -20 -94
l2 -98 -38 0 -38 0 3 100 c3 98 3 100 -19 97 -16 -1 -22 4 -24 21 -2 21 2 22
77 22 77 0 78 0 78 -26z m103 -57 c15 -46 27 -100 27 -120 0 -36 -1 -37 -35
-37 l-35 0 0 48 c0 27 -11 81 -24 120 l-25 72 33 0 c31 0 32 -2 59 -83z m67
76 c0 -5 -9 -34 -19 -67 l-18 -58 -14 43 c-21 64 -14 89 22 89 16 0 29 -3 29
-7z m-1473 -65 c-3 -7 -5 -2 -5 12 0 14 2 19 5 13 2 -7 2 -19 0 -25z m1570 0
c-3 -7 -5 -2 -5 12 0 14 2 19 5 13 2 -7 2 -19 0 -25z m-847 -29 c0 -33 -3 -40
-17 -37 -22 4 -30 53 -13 73 19 22 30 8 30 -36z m40 30 c-10 -7 -11 -12 -4
-15 9 -4 9 -11 0 -29 -16 -35 -22 -31 -21 15 0 33 3 40 20 40 17 0 18 -2 5
-11z m-775 -74 c-4 -25 -9 -44 -12 -41 -2 2 -1 25 2 51 4 25 9 44 12 41 2 -2
1 -25 -2 -51z m1603 -25 c0 -22 -1 -22 -8 5 -4 17 -8 41 -8 55 0 22 1 22 8 -5
4 -16 8 -41 8 -55z m-828 -40 c0 -31 -3 -38 -15 -34 -8 4 -15 14 -15 24 0 10
-3 25 -6 34 -4 12 0 16 15 16 18 0 21 -6 21 -40z m728 -3 c4 -20 -25 -34 -40
-19 -15 15 -1 44 19 40 10 -2 19 -11 21 -21z m-1521 -19 c-3 -7 -5 -2 -5 12 0
14 2 19 5 13 2 -7 2 -19 0 -25z m1641 -48 c0 -22 -1 -22 -8 5 -4 17 -8 41 -8
55 0 22 1 22 8 -5 4 -16 8 -41 8 -55z m-1651 -7 c-3 -10 -5 -4 -5 12 0 17 2
24 5 18 2 -7 2 -21 0 -30z m410 -20 l-2 -48 -47 -3 -48 -3 0 50 0 51 50 0 49
0 -2 -47z m43 7 c0 -39 1 -40 35 -40 30 0 37 5 55 40 11 22 26 40 33 40 7 0
24 -21 37 -47 l24 -48 6 45 c5 44 6 45 44 48 21 2 43 -1 49 -7 8 -8 -1 -11
-31 -11 -40 0 -42 -1 -42 -30 0 -28 2 -30 41 -30 24 0 38 -4 34 -10 -3 -6 -32
-9 -64 -9 -58 2 -59 2 -79 42 l-20 40 -21 -42 c-21 -40 -23 -41 -71 -41 l-50
0 0 50 c0 28 5 50 10 50 6 0 10 -18 10 -40z m322 18 l-5 -22 30 22 c17 12 39
22 50 22 13 0 9 -6 -14 -21 -18 -12 -33 -24 -33 -28 0 -4 15 -15 33 -26 26
-16 29 -20 14 -23 -11 -2 -29 6 -42 18 -14 13 -31 20 -39 17 -13 -5 -16 1 -16
28 0 23 5 35 14 35 10 0 12 -7 8 -22z m243 -28 l0 -45 -50 0 c-49 0 -50 0 -53
33 -5 55 2 63 55 60 l48 -3 0 -45z m110 20 c0 -20 -6 -26 -27 -28 -16 -2 -28
1 -28 7 0 6 9 11 20 11 11 0 20 5 20 10 0 6 -14 10 -31 10 -30 0 -31 -1 -27
-40 2 -28 0 -40 -9 -40 -9 0 -13 16 -13 51 l0 50 48 -3 c43 -3 47 -5 47 -28z
m105 20 c0 -5 -16 -10 -35 -10 -19 0 -35 -4 -35 -10 0 -5 16 -10 36 -10 33 0
35 -2 32 -27 -3 -25 -8 -28 -42 -31 -21 -2 -43 1 -49 7 -8 8 1 11 31 11 23 0
42 5 42 10 0 6 -14 10 -30 10 -32 0 -47 18 -36 45 6 17 86 22 86 5z m70 -40
c0 -36 -4 -50 -14 -50 -10 0 -14 14 -14 50 0 36 4 50 14 50 10 0 14 -14 14
-50z m38 0 c0 -36 -4 -50 -14 -50 -10 0 -14 14 -14 50 0 36 4 50 14 50 10 0
14 -14 14 -50z m-818 32 c0 -10 -22 -32 -32 -32 -4 0 -8 9 -8 20 0 13 7 20 20
20 11 0 20 -4 20 -8z m381 -86 c15 -16 10 -26 -12 -26 -16 0 -19 4 -14 21 4
13 0 27 -11 40 -16 18 -16 20 2 40 l19 21 3 -43 c2 -24 7 -48 13 -53z m-914
22 c-3 -7 -5 -2 -5 12 0 14 2 19 5 13 2 -7 2 -19 0 -25z m1670 0 c-3 -7 -5 -2
-5 12 0 14 2 19 5 13 2 -7 2 -19 0 -25z m-1069 -20 c19 -19 14 -28 -13 -28
-27 0 -28 1 -19 24 7 19 16 20 32 4z m530 0 c20 -20 14 -28 -23 -28 -33 0 -34
1 -23 20 15 23 29 25 46 8z m-1143 -53 c-4 -25 -9 -44 -12 -41 -2 2 -1 25 2
51 4 25 9 44 12 41 2 -2 1 -25 -2 -51z m825 40 c11 -13 8 -15 -19 -15 -30 0
-39 9 -24 23 11 11 30 8 43 -8z m867 -22 c-3 -10 -5 -4 -5 12 0 17 2 24 5 18
2 -7 2 -21 0 -30z m-43 -63 c7 -50 6 -52 -54 -138 l-60 -87 0 -356 0 -356 24
-22 c23 -21 24 -28 22 -148 l-1 -127 -345 -268 c-190 -148 -355 -278 -368
-289 l-22 -19 -370 287 -369 288 -1 126 c0 121 1 126 25 149 l25 23 0 354 0
354 -65 91 c-36 50 -63 99 -61 107 3 9 7 31 11 49 l7 32 798 0 797 0 7 -50z
m53 8 c-3 -7 -5 -2 -5 12 0 14 2 19 5 13 2 -7 2 -19 0 -25z m-1720 -40 c-3 -8
-6 -5 -6 6 -1 11 2 17 5 13 3 -3 4 -12 1 -19z m1730 0 c-3 -8 -6 -5 -6 6 -1
11 2 17 5 13 3 -3 4 -12 1 -19z m-137 -183 c0 -8 -4 -15 -10 -15 -5 0 -7 7 -4
15 4 8 8 15 10 15 2 0 4 -7 4 -15z m-1492 -710 l-22 -20 17 21 c15 18 17 56
19 360 l3 339 2 -340 3 -339 -22 -21z m1469 148 c-2 -16 -4 -5 -4 22 0 28 2
40 4 28 2 -13 2 -35 0 -50z m53 -188 c0 -3 -4 -5 -9 -5 -15 0 -53 59 -46 70 5
9 55 -51 55 -65z m-1480 43 c-1 -7 -12 -26 -26 -43 -26 -32 -22 -10 6 33 17
25 20 27 20 10z m1490 -152 c0 -34 -3 -90 -6 -124 l-7 -61 -106 -82 c-58 -46
-205 -159 -326 -253 -121 -93 -222 -172 -225 -176 -11 -12 -94 -70 -102 -70
-5 0 -43 27 -85 60 -41 33 -72 60 -68 60 4 0 39 -25 78 -55 39 -30 73 -55 76
-55 4 0 27 17 53 38 25 20 90 71 143 112 54 41 146 113 205 160 60 47 163 127
229 178 l121 93 0 120 c0 73 4 119 10 119 6 0 10 -28 10 -64z m-1499 -193 l24
-27 -24 15 c-14 9 -27 21 -29 27 -6 19 3 14 29 -15z m109 -90 c0 -5 -17 5 -52
31 -16 11 -28 24 -28 28 0 5 18 -6 40 -23 22 -18 40 -34 40 -36z m90 -70 c0
-6 -33 15 -57 36 -40 33 -25 33 17 0 22 -18 40 -34 40 -36z m60 -43 c46 -38
34 -39 -15 0 -21 17 -34 30 -28 30 5 0 24 -13 43 -30z m120 -97 c0 -6 -33 15
-57 36 -40 33 -25 33 17 0 22 -18 40 -34 40 -36z m60 -43 c46 -38 34 -39 -15
0 -21 17 -34 30 -28 30 5 0 24 -13 43 -30z m71 -57 c13 -17 13 -17 -6 -3 -11
8 -22 16 -24 17 -2 2 0 3 6 3 6 0 17 -8 24 -17z m-10 -30 c13 -16 12 -17 -3
-4 -10 7 -18 15 -18 17 0 8 8 3 21 -13z m49 2 c11 -13 10 -14 -4 -9 -9 3 -16
10 -16 15 0 13 6 11 20 -6z m-9 -32 c13 -16 12 -17 -3 -4 -17 13 -22 21 -14
21 2 0 10 -8 17 -17z m50 -40 c13 -16 12 -17 -3 -4 -17 13 -22 21 -14 21 2 0
10 -8 17 -17z m299 13 c0 -2 -8 -10 -17 -17 -16 -13 -17 -12 -4 4 13 16 21 21
21 13z m-259 -43 c13 -16 12 -17 -3 -4 -17 13 -22 21 -14 21 2 0 10 -8 17 -17z
m219 13 c0 -2 -8 -10 -17 -17 -16 -13 -17 -12 -4 4 13 16 21 21 21 13z m-169
-53 c13 -16 12 -17 -3 -4 -17 13 -22 21 -14 21 2 0 10 -8 17 -17z m119 13 c0
-2 -8 -10 -17 -17 -16 -13 -17 -12 -4 4 13 16 21 21 21 13z"/>
<path d="M1435 2650 c3 -5 10 -10 16 -10 5 0 9 5 9 10 0 6 -7 10 -16 10 -8 0
-12 -4 -9 -10z"/>
<path d="M1550 2350 c0 -47 4 -80 10 -80 6 0 10 33 10 80 0 47 -4 80 -10 80
-6 0 -10 -33 -10 -80z"/>
<path d="M1392 2370 c0 -19 2 -27 5 -17 2 9 2 25 0 35 -3 9 -5 1 -5 -18z"/>
<path d="M980 2160 c0 -27 3 -30 29 -30 17 0 33 5 36 10 4 6 -5 10 -19 10 -14
0 -26 5 -26 10 0 6 9 10 19 10 11 0 23 5 26 10 4 6 -8 10 -29 10 -33 0 -36 -2
-36 -30z"/>
<path d="M1580 2160 c0 -28 3 -30 35 -30 32 0 35 2 35 30 0 28 -3 30 -35 30
-32 0 -35 -2 -35 -30z"/>
<path d="M747 1995 c-11 -5 -19 -13 -18 -17 0 -5 1 -14 1 -22 0 -7 22 -44 50
-81 l49 -68 1 -376 c0 -356 -1 -376 -19 -395 -16 -17 -20 -38 -22 -101 -1 -44
-1 -92 0 -107 1 -29 -2 -26 221 -199 58 -45 107 -84 110 -88 3 -3 22 -17 42
-31 21 -14 38 -28 38 -32 0 -5 5 -8 11 -8 9 0 91 -61 109 -81 3 -3 23 -18 45
-35 22 -16 49 -37 59 -46 31 -28 59 -21 127 31 109 84 333 260 346 270 16 14
169 131 206 158 45 33 47 39 47 144 0 82 -3 98 -20 117 -19 20 -20 35 -20 405
0 362 1 384 19 404 10 11 26 33 34 50 9 16 23 35 31 42 20 17 21 60 2 67 -28
11 -1429 10 -1449 -1z m1453 -19 c0 -7 -25 -47 -55 -89 l-55 -75 0 -385 c0
-371 1 -384 20 -402 17 -16 20 -31 20 -116 l0 -98 -326 -253 c-180 -139 -332
-253 -338 -252 -6 1 -159 115 -339 255 l-327 254 0 96 c0 83 3 98 20 114 19
18 20 31 20 406 l0 389 -50 68 c-27 38 -50 76 -50 85 0 16 55 17 730 17 613 0
730 -2 730 -14z"/>
<path d="M760 1967 c0 -3 25 -40 55 -83 l56 -77 -1 -381 c-1 -368 -2 -382 -22
-403 -17 -18 -20 -35 -20 -109 l0 -87 317 -249 c174 -136 319 -248 323 -248 4
0 149 112 322 248 l315 248 3 85 c2 75 0 87 -18 104 -19 18 -20 28 -20 409 l0
391 53 75 53 75 -198 0 -198 0 -5 -45 c-10 -74 -13 -77 -38 -49 -15 17 -31 24
-49 23 -16 -2 -28 -1 -28 1 0 13 85 63 99 58 9 -4 13 -3 9 1 -4 5 -61 9 -127
10 -111 1 -120 0 -115 -16 7 -24 -13 -23 -26 1 -11 22 -43 18 -74 -8 -17 -15
-18 -15 -15 2 4 16 -6 18 -114 19 -65 0 -121 -2 -124 -6 -4 -3 2 -6 13 -6 24
0 85 -49 64 -51 -8 -1 -19 -1 -24 0 -11 2 -33 -26 -50 -61 l-12 -28 -53 36
-53 36 41 -59 c60 -85 46 -110 -44 -78 -22 8 -42 15 -43 15 -2 0 14 -20 36
-45 26 -29 39 -54 38 -70 -1 -22 -6 -25 -41 -25 -44 -1 -45 2 24 -49 23 -17
23 -17 -70 -41 -52 -12 -100 -25 -106 -28 -7 -2 -13 3 -13 12 0 14 29 25 124
50 6 1 -15 18 -47 37 -31 19 -58 39 -61 46 -3 7 -6 53 -7 102 -1 50 -5 88 -9
86 -7 -4 -18 12 -17 25 0 3 -12 18 -27 35 l-28 30 29 6 c38 8 127 0 131 -11 2
-5 19 -29 38 -54 40 -53 43 -69 12 -57 -13 4 -41 11 -63 15 -63 12 -30 -9 54
-34 40 -12 80 -24 88 -27 8 -3 -18 36 -57 87 -39 51 -68 95 -66 97 3 3 47 -20
98 -50 51 -30 94 -54 95 -53 1 1 -1 27 -4 59 l-6 57 -182 0 c-100 -1 -189 2
-198 6 -10 3 -17 4 -17 1z m1204 -19 c-4 -7 -33 -47 -64 -88 -75 -99 -78 -105
-54 -96 16 7 70 24 169 54 12 3 -11 -29 -57 -79 l-77 -84 66 -7 c37 -4 71 -5
75 -2 4 3 8 1 8 -3 0 -5 -25 -24 -56 -43 l-57 -34 34 -9 c99 -24 109 -28 109
-44 0 -11 -6 -14 -22 -9 -13 3 -61 16 -107 28 l-84 21 39 34 39 33 -37 0 c-29
0 -36 3 -32 15 4 8 1 15 -6 15 -14 0 9 40 48 82 l25 27 -48 -15 c-61 -18 -62
-18 -70 6 -7 23 11 57 53 103 35 37 22 34 -37 -8 -36 -26 -50 -32 -54 -22 -4
10 29 34 96 75 113 68 111 67 101 50z m-614 -18 c9 -16 8 -20 -5 -20 -8 0 -15
9 -15 20 0 11 2 20 5 20 2 0 9 -9 15 -20z m250 0 c0 -11 -7 -20 -15 -20 -13 0
-13 3 -3 20 7 11 14 20 15 20 2 0 3 -9 3 -20z m518 -3 c2 -9 -7 -27 -21 -39
-42 -40 -47 -60 -47 -201 0 -143 1 -140 -49 -123 l-24 8 33 29 c34 30 35 58 3
60 -10 0 -31 2 -48 2 -16 1 -30 7 -30 13 0 6 23 37 50 68 59 68 62 74 40 82
-14 6 -37 1 -129 -23 -15 -4 -11 4 15 40 19 24 41 54 49 66 12 17 25 21 72 21
35 0 58 4 58 11 0 17 25 4 28 -14z m-978 -23 l0 -26 -37 23 c-21 12 -40 24
-42 26 -2 2 14 3 37 3 38 0 42 -2 42 -26z m163 19 c-7 -2 -21 -2 -30 0 -10 3
-4 5 12 5 17 0 24 -2 18 -5z m207 1 l32 -7 -7 -126 c-4 -69 -10 -165 -14 -213
-4 -49 -3 -88 1 -88 4 0 8 12 8 28 0 38 46 372 52 378 9 9 130 -25 149 -41 10
-10 23 -43 29 -74 17 -89 21 -104 25 -100 2 2 0 23 -5 47 -9 54 -1 45 32 -33
23 -55 24 -65 15 -129 -8 -60 -7 -71 7 -81 9 -7 16 -22 16 -33 0 -11 5 -24 10
-27 6 -3 10 -48 10 -99 l0 -93 -83 -56 c-78 -51 -84 -57 -82 -87 1 -23 -4 -36
-22 -47 -12 -8 -23 -23 -23 -33 0 -25 -10 -50 -21 -50 -5 0 -9 7 -9 16 0 13
-3 14 -14 5 -10 -9 -16 -9 -21 -1 -5 8 -10 8 -20 0 -10 -8 -15 -8 -20 1 -6 8
-10 7 -17 -5 -7 -13 -13 -14 -23 -6 -10 8 -15 8 -20 0 -5 -8 -11 -6 -19 6 -12
16 -13 16 -20 -2 -6 -16 -9 -16 -17 -4 -8 11 -12 12 -16 3 -7 -18 -23 -16 -23
2 0 18 -16 20 -23 3 -4 -10 -8 -9 -17 2 -9 12 -13 12 -17 2 -4 -10 -8 -10 -19
-1 -11 9 -15 8 -20 -5 -9 -23 -21 -11 -28 28 -4 22 -14 37 -26 41 -15 5 -20
15 -20 43 0 35 -5 40 -79 89 l-78 51 -7 93 c-6 81 -5 95 9 106 11 7 15 19 10
31 -4 15 0 22 15 27 16 5 20 13 17 28 -3 12 -8 47 -11 77 -6 48 -2 64 24 120
l30 65 -6 -47 c-10 -77 3 -55 17 26 9 59 17 80 38 99 30 27 131 54 141 37 7
-12 51 -339 50 -377 0 -12 5 -25 10 -28 7 -4 9 7 5 32 -5 35 -25 346 -25 385
0 15 16 21 71 27 9 0 31 -2 49 -5z m153 -1 c-7 -2 -21 -2 -30 0 -10 3 -4 5 12
5 17 0 24 -2 18 -5z m197 -4 c-8 -5 -27 -16 -42 -25 -27 -14 -28 -14 -26 11 2
22 7 25 43 25 30 0 36 -3 25 -11z m-928 -327 c22 -18 14 -32 -18 -32 -20 0
-24 5 -24 31 0 31 7 32 42 1z m133 -106 c-16 -24 -16 -24 -63 -8 -49 16 -48
17 28 37 51 13 58 7 35 -29z m900 22 c3 3 5 -1 5 -10 0 -9 -16 -18 -43 -24
-39 -9 -45 -8 -60 12 -28 38 -21 43 38 29 30 -7 57 -10 60 -7z m-967 -50 c34
-11 62 -24 62 -29 0 -5 -5 -9 -11 -9 -6 0 -9 -14 -7 -32 3 -29 0 -33 -22 -36
-14 -2 -32 -5 -40 -8 -13 -4 -13 -6 0 -15 13 -8 12 -11 -4 -20 -10 -6 -32 -24
-50 -39 -25 -23 -29 -31 -18 -41 16 -17 15 -26 -3 -33 -13 -5 -15 12 -15 118
l0 123 45 -15 c43 -14 57 -33 35 -47 -5 -3 -10 -12 -10 -18 1 -7 14 4 31 23
l30 35 -68 21 c-44 14 -69 28 -71 38 -4 19 13 17 116 -16z m1062 17 c0 -10
-25 -22 -74 -37 l-74 -22 25 -33 c28 -36 53 -46 29 -11 -22 30 -20 35 12 43
49 14 52 14 53 -8 1 -17 3 -15 9 8 5 18 7 -22 7 -100 0 -103 -2 -116 -7 -65
-4 36 -7 53 -8 38 -3 -48 -12 -58 -50 -58 l-36 0 57 -36 c60 -37 72 -54 35
-47 -15 3 -35 -6 -56 -24 l-32 -28 67 -51 68 -50 1 -76 c2 -75 2 -75 -34 -104
-20 -16 -44 -37 -54 -46 -10 -10 -21 -19 -25 -20 -5 -1 -12 -6 -18 -10 -57
-47 -117 -90 -120 -87 -2 2 32 60 76 129 43 69 79 133 79 143 0 29 -28 31 -68
4 -20 -15 -70 -49 -109 -77 l-73 -51 0 64 0 64 69 27 c63 24 77 26 170 22 99
-5 137 5 64 18 -79 13 -180 7 -228 -14 -26 -11 -53 -20 -61 -20 -27 0 -2 28
46 50 38 18 60 22 109 18 34 -2 61 -3 61 -2 0 1 -25 17 -56 34 l-55 32 60 41
61 42 -50 30 c-56 33 -62 45 -25 45 31 0 31 7 3 29 -21 17 -34 51 -19 51 4 0
32 -18 61 -40 29 -22 57 -40 62 -40 19 0 5 18 -32 40 -40 25 -50 40 -28 40 21
0 -5 18 -32 22 -19 2 -25 9 -27 31 -1 16 -7 35 -13 42 -9 11 3 18 62 35 40 12
78 23 83 25 22 8 35 4 35 -10z m-1010 -162 c0 -10 -12 -27 -27 -40 l-28 -22
28 -1 c39 0 34 -14 -18 -44 -25 -15 -45 -29 -45 -31 0 -3 25 -21 55 -41 30
-20 55 -38 55 -40 0 -1 -22 -16 -50 -33 -27 -17 -50 -32 -50 -34 0 -2 25 -2
56 1 39 3 67 -1 97 -14 45 -19 77 -42 77 -55 0 -8 -68 12 -107 33 -15 7 -60 9
-133 6 -62 -3 -108 -3 -103 1 4 4 31 24 58 46 28 21 54 42 59 46 12 11 -40 52
-73 59 -25 5 -23 7 28 42 l54 37 -39 3 -39 3 65 47 c73 53 80 55 80 31z m980
-98 c0 -9 -6 -12 -16 -8 -13 5 -13 7 -2 14 17 11 18 11 18 -6z m-900 -119 c0
-49 -2 -57 -16 -52 -9 3 -27 6 -41 6 -25 0 -25 1 -10 18 26 28 21 40 -28 74
l-46 32 32 17 c32 16 34 16 70 -10 37 -25 38 -28 39 -85z m795 91 c17 -13 15
-16 -28 -46 -51 -35 -55 -45 -30 -73 15 -17 15 -18 -5 -18 -11 0 -27 -3 -36
-6 -14 -5 -16 3 -16 52 0 55 2 60 33 81 38 26 57 28 82 10z m-715 -109 c0 -18
8 -33 24 -43 20 -13 27 -31 36 -88 l13 -71 15 38 15 38 13 -23 c12 -22 13 -22
14 -4 1 19 1 19 14 2 13 -17 14 -17 20 0 7 17 8 17 18 0 9 -17 11 -17 22 -1
12 16 13 16 20 -2 7 -18 8 -17 22 6 l14 25 6 -22 c7 -27 19 -30 28 -6 6 15 8
15 20 -2 12 -17 13 -17 20 1 6 16 9 16 17 4 8 -13 10 -13 18 0 8 12 11 11 18
-5 7 -19 8 -18 14 5 6 24 7 24 25 -15 17 -37 18 -38 21 -15 13 90 25 129 44
135 12 4 19 15 19 33 0 23 43 82 60 82 3 0 3 -26 0 -58 -4 -40 -13 -67 -32
-92 -30 -40 -36 -68 -40 -162 -1 -38 -5 -68 -8 -68 -3 0 -30 7 -60 15 -30 8
-69 15 -87 15 -27 0 -32 4 -37 28 -2 15 -2 -19 1 -75 4 -97 3 -105 -21 -145
l-26 -43 0 117 c0 103 2 117 18 121 9 3 1 5 -18 5 -19 0 -29 -2 -22 -5 14 -5
18 -218 4 -227 -4 -3 -50 7 -102 22 -79 23 -101 34 -143 73 -63 57 -48 71 18
18 40 -31 59 -39 95 -40 66 -2 88 -10 110 -44 11 -16 20 -25 20 -20 0 6 -7 21
-16 34 -14 19 -16 42 -12 130 4 81 3 100 -5 79 -9 -22 -17 -28 -41 -28 -17 0
-56 -7 -86 -15 -30 -8 -56 -15 -56 -15 -1 0 -5 43 -9 95 -6 87 -10 98 -41 139
-28 37 -34 53 -34 96 l0 51 30 -23 c21 -15 30 -30 30 -50z m-282 40 c18 -18
14 -31 -13 -51 l-25 -18 0 41 c0 41 14 52 38 28z m1122 -30 c0 -37 -1 -38 -22
-27 -43 23 -50 36 -28 52 35 25 50 17 50 -25z m-965 -118 c11 -5 38 -16 60
-23 44 -15 52 -32 54 -116 l1 -44 -22 20 c-54 47 -199 144 -213 141 -8 -2 37
-41 105 -91 66 -49 120 -92 120 -96 0 -5 -9 -16 -20 -26 -11 -10 -20 -27 -20
-38 0 -25 -5 -20 -13 14 -5 21 -2 29 16 38 22 11 22 11 -2 5 -21 -6 -34 3 -84
57 l-59 64 56 -70 c31 -38 61 -88 67 -110 11 -38 11 -38 23 -17 12 22 12 22
51 -18 33 -34 56 -46 136 -70 53 -17 108 -30 123 -30 14 0 69 12 122 27 76 21
105 35 140 66 58 51 57 24 -1 -33 -33 -33 -69 -53 -150 -85 l-106 -42 -106 41
c-81 31 -117 52 -154 87 -47 44 -49 44 -50 20 0 -24 -1 -24 -12 -8 -7 10 -52
80 -100 155 -77 119 -107 159 -107 138 0 -9 50 -95 106 -182 30 -46 54 -86 54
-89 0 -11 -59 30 -107 75 -13 11 -27 20 -33 20 -5 0 -10 3 -10 8 0 4 -23 23
-50 42 l-50 35 0 70 0 70 108 3 c59 1 116 -2 127 -8z m880 -64 c-10 -14 -21
-24 -25 -21 -4 3 -34 -27 -66 -66 -51 -60 -62 -69 -84 -64 -22 5 -23 4 -7 -6
15 -9 18 -19 13 -48 l-6 -36 14 36 c13 35 126 182 133 175 2 -2 -32 -60 -76
-130 -44 -70 -82 -123 -84 -119 -3 5 -2 27 3 50 6 35 4 45 -11 59 -11 10 -19
22 -19 28 1 11 221 175 228 170 2 -1 -4 -14 -13 -28z m-575 -187 l0 -51 -31 6
c-17 3 -42 6 -54 6 -27 0 -108 57 -100 70 4 6 12 6 23 -1 12 -7 34 -6 77 5 88
21 85 22 85 -35z m241 35 c55 -12 73 -13 84 -4 12 10 15 10 14 -1 -1 -27 -60
-63 -117 -70 -31 -4 -59 -6 -64 -3 -12 8 -10 94 3 94 5 0 41 -7 80 -16z m139
-36 c-1 -32 -92 -91 -183 -119 -50 -15 -93 -27 -94 -25 -2 2 4 17 14 34 18 32
45 42 113 42 30 0 49 9 87 39 52 43 63 48 63 29z m-417 -209 c92 -38 116 -45
137 -36 14 5 48 18 75 29 28 11 65 25 84 32 19 6 53 28 75 49 28 26 42 34 47
25 8 -13 -15 -36 -68 -69 -18 -11 -33 -25 -33 -30 0 -6 -4 -8 -8 -5 -5 3 -28
-13 -51 -35 -24 -21 -46 -39 -48 -39 -2 0 -10 -6 -17 -12 -62 -60 -82 -65
-120 -29 -12 12 -27 21 -32 21 -5 0 -16 9 -24 20 -8 11 -18 20 -22 20 -4 0
-19 11 -34 24 -43 39 -60 52 -95 77 -19 13 -38 30 -42 37 -5 7 -14 9 -20 5 -7
-4 -7 -1 1 10 12 14 17 13 48 -16 20 -19 82 -51 147 -78z"/>
<path d="M1160 1338 c17 -39 27 -46 119 -90 56 -25 101 -45 101 -44 0 2 -7 19
-15 39 -10 25 -23 37 -43 42 -16 3 -48 26 -72 50 -34 35 -51 45 -77 45 l-32 0
19 -42z m61 -15 l24 -27 -24 15 c-14 9 -27 21 -29 27 -6 19 3 14 29 -15z"/>
<path d="M1681 1336 c-24 -25 -54 -47 -67 -50 -15 -4 -31 -22 -43 -47 -11 -22
-16 -39 -11 -37 4 2 51 23 103 48 85 40 97 50 116 88 l21 42 -38 0 c-32 0 -45
-7 -81 -44z m63 -1 c-4 -9 -16 -21 -28 -27 -19 -10 -19 -9 3 16 28 30 33 32
25 11z"/>
<path d="M1442 1165 c-29 -53 -29 -56 -9 -49 28 10 46 10 77 -1 21 -7 23 -6
13 7 -7 8 -21 33 -31 57 l-20 43 -30 -57z"/>
<path d="M900 1817 c0 -13 39 -67 79 -109 19 -21 31 -38 26 -39 -16 -2 -68 -6
-89 -8 -13 -1 -17 -4 -10 -11 6 -6 37 -7 77 -3 l66 6 -38 46 c-74 87 -110 126
-111 118z"/>
</g>
</svg>
